<?xml version="1.0" encoding="UTF-8"?>
<svg width="143px" height="77px" viewBox="0 0 143 77" version="1.1" xmlns="http://www.w3.org/2000/svg" xmlns:xlink="http://www.w3.org/1999/xlink">
    <title>sdibil-logo@3x</title>
    <defs>
        <filter id="filter-1">
            <feColorMatrix in="SourceGraphic" type="matrix" values="0 0 0 0 1.000000 0 0 0 0 1.000000 0 0 0 0 1.000000 0 0 0 1.000000 0"></feColorMatrix>
        </filter>
        <polygon id="path-2" points="0 77 143 77 143 0 0 0"></polygon>
    </defs>
    <g id="Page-1" stroke="none" stroke-width="1" fill="none" fill-rule="evenodd">
        <g id="sdibil-logo" transform="translate(-41.000000, -47.000000)" filter="url(#filter-1)">
            <g transform="translate(41.000000, 47.000000)">
                <path d="M15.5427121,19.439785 L15.5427121,12.3007062 C15.5427121,11.2783807 15.5106717,10.4561147 15.4387321,9.82485589 C15.3664902,9.19420054 15.1984295,8.72286865 14.9587314,8.40391999 C14.7187311,8.09191156 14.3505693,7.86861732 13.8708709,7.74882298 C13.3748501,7.62902864 12.7509701,7.56505786 11.9590294,7.56505786 C11.1432097,7.56505786 10.5111685,7.62902864 10.0390267,7.74882298 C9.57504624,7.86861732 9.22320695,8.09191156 8.97504539,8.40391999 C8.7271861,8.72286865 8.58330681,9.19420054 8.51136716,9.82485589 C8.43156856,10.4561147 8.39922594,11.2783807 8.39922594,12.3007062 L8.39922594,17.978113 C8.39922594,18.705328 8.44728646,19.3121452 8.53524628,19.8070135 C8.63922628,20.2861909 8.83932732,20.7252356 9.15912626,21.1087586 C9.4789252,21.4998252 9.94320797,21.8914954 10.5510678,22.2747166 C11.1510686,22.6657832 11.9910698,23.1211224 13.0626078,23.6639688 C15.5904703,24.9735593 17.5905739,26.0836938 19.0462938,27.0100631 C20.5104773,27.9364325 21.5980355,28.8625 22.3343589,29.8127076 C23.0461987,30.7632168 23.5240835,31.8413659 23.7160233,33.0236183 C23.9158221,34.2052673 23.995923,35.7462993 23.995923,37.6388688 L23.995923,46.8944149 C23.995923,49.561574 23.8517414,51.6937322 23.5322447,53.298735 C23.2224206,54.9040395 22.6218153,56.1258211 21.742217,56.9797707 C20.8780345,57.8264783 19.6381335,58.3934646 18.0545544,58.649046 C16.478532,58.9203183 14.4466904,59.0567088 11.9590294,59.0567088 C9.63912693,59.0567088 7.71126527,58.9203183 6.20718255,58.649046 C4.69584541,58.3934646 3.50370267,57.8264783 2.63952009,56.9797707 C1.75206292,56.1258211 1.15206208,54.9040395 0.807779476,53.298735 C0.463799142,51.6937322 0.296040719,49.561574 0.296040719,46.8944149 L0.296040719,35.4587325 L8.47146786,35.4587325 L8.47146786,46.8944149 C8.47146786,47.9085932 8.51136716,48.7151682 8.58330681,49.337978 C8.65554872,49.9369497 8.81514592,50.4158254 9.05544853,50.7510685 C9.28728765,51.0947605 9.64698589,51.3183565 10.1112687,51.4381509 C10.5670879,51.5576435 11.1988269,51.6137688 11.9590294,51.6137688 C13.5271929,51.6137688 14.5029121,51.3340475 14.9266911,50.7510685 C15.3347521,50.1605457 15.5427121,48.8904843 15.5427121,46.8944149 L15.5427121,38.229995 C15.5427121,37.2478021 15.5106717,36.4572198 15.4387321,35.8262627 C15.3664902,35.1950039 15.1666914,34.6364666 14.8550537,34.1494437 C14.5346502,33.6618174 14.0628107,33.2149272 13.4307696,32.7997206 C12.7908694,32.384514 11.9511705,31.889344 10.871169,31.3145122 C8.34360873,29.9964727 6.36738429,28.8784927 4.92768453,27.9521234 C3.49584372,27.0417468 2.4158422,26.0996865 1.68767996,25.1576262 C0.951961039,24.2152642 0.50400071,23.1687988 0.296040719,22.0191352 C0.111959856,20.8851626 0.000120906971,19.4874614 0.000120906971,17.8347823 L0.000120906971,12.3007062 C0.000120906971,9.63324529 0.16787933,7.49354336 0.487980537,5.88823884 C0.807779476,4.28293433 1.39992137,3.04546181 2.2719629,2.17521779 C3.15156112,1.30406852 4.35942176,0.729538481 5.91972623,0.466111631 C7.4715672,0.19453756 9.48738868,0.0668977463 11.9590294,0.0668977463 C14.3989321,0.0668977463 16.3905722,0.19453756 17.9185341,0.466111631 C19.4383347,0.729538481 20.6383364,1.30406852 21.4864988,2.17521779 C22.3422179,3.04546181 22.9180373,4.28293433 23.2378363,5.88823884 C23.5479627,7.49354336 23.7160233,9.63324529 23.7160233,12.3007062 L23.7160233,19.439785 L15.5427121,19.439785 Z" id="Fill-1" fill="#231F20"></path>
                <path d="M45.9202864,12.6571924 C45.9202864,11.7308231 45.8719236,10.9800716 45.784266,10.3973944 C45.6799838,9.81411362 45.5119231,9.35092896 45.2719227,9.00753863 C45.0322247,8.67199378 44.6719219,8.44839779 44.2161026,8.35304512 C43.7521221,8.2567872 43.1285444,8.20911086 42.3544375,8.20911086 L38.7789161,8.20911086 L38.7789161,51.251489 L42.3544375,51.251489 C43.1285444,51.251489 43.7521221,51.1878199 44.2161026,51.0677238 C44.6719219,50.9479295 45.0322247,50.7243335 45.2719227,50.4132303 C45.5119231,50.0936782 45.6799838,49.6464862 45.784266,49.0233746 C45.8719236,48.4250064 45.9202864,47.6341223 45.9202864,46.6676204 L45.9202864,12.6571924 Z M54.3834721,46.6676204 C54.3834721,49.2394268 54.2311293,51.2991653 53.9113304,52.840499 C53.5915314,54.4056709 52.9918329,55.5957689 52.0874487,56.4183365 C51.1839714,57.2406025 49.9679495,57.7918978 48.4079473,58.0553247 C46.8561063,58.3268988 44.8405871,58.4620823 42.3544375,58.4620823 L30.395529,58.4620823 L30.395529,0.926399508 L42.3544375,0.926399508 C44.8405871,0.926399508 46.8561063,1.06188479 48.4079473,1.32561339 C49.9679495,1.59688572 51.1839714,2.14003386 52.0874487,2.96260155 C52.9918329,3.79301471 53.5915314,4.96681819 53.9113304,6.5000047 C54.2311293,8.02534574 54.3834721,10.0778422 54.3834721,12.6571924 L54.3834721,46.6676204 Z" id="Fill-3" fill="#231F20"></path>
                <mask id="mask-3" fill="white">
                    <use xlink:href="#path-2"></use>
                </mask>
                <g id="Clip-6"></g>
                <polygon id="Fill-5" fill="#231F20" mask="url(#mask-3)" points="61.7350996 58.4620521 70.1260434 58.4620521 70.1260434 12.8050192 61.7350996 12.8050192"></polygon>
                <polygon id="Fill-7" fill="#231F20" mask="url(#mask-3)" points="61.7350996 8.35271319 70.1260434 8.35271319 70.1260434 0.134278291 61.7350996 0.134278291"></polygon>
                <polygon id="Fill-8" fill="#231F20" mask="url(#mask-3)" points="108.963176 58.4620521 117.35412 58.4620521 117.35412 12.8050192 108.963176 12.8050192"></polygon>
                <polygon id="Fill-9" fill="#231F20" mask="url(#mask-3)" points="108.963176 8.42000321 117.35412 8.42000321 117.35412 0.066988271 108.963176 0.066988271"></polygon>
                <path d="M86.2945397,51.37934 L91.9762606,51.37934 C93.9763642,51.37934 94.9780784,50.5389691 94.9780784,48.8558134 L94.9780784,35.9074634 C94.9780784,33.1404253 93.4739957,31.7566046 90.4761073,31.7566046 L86.2945397,31.7566046 L86.2945397,51.37934 Z M86.2945397,24.6712371 L89.846182,24.6712371 C92.7397881,24.6712371 94.1858355,23.2602589 94.1858355,20.4392078 L94.1858355,11.3173365 C94.1858355,8.49447486 93.053844,7.08289318 90.7965108,7.08289318 L86.2945397,7.08289318 L86.2945397,24.6712371 Z M96.3180299,28.416847 C100.471184,29.6102642 102.548971,31.8386803 102.548971,35.0948534 L102.548971,49.7504991 C102.548971,55.5597702 99.6810573,58.4644058 93.9518805,58.4644058 L78.7233452,58.4644058 L78.7233452,-6.03497937e-05 L91.6600889,-6.03497937e-05 C98.3949094,-6.03497937e-05 101.760657,3.52979908 101.760657,10.5849917 L101.760657,21.822425 C101.760657,25.190547 99.9473549,27.2530012 96.3180299,28.0094859 L96.3180299,28.416847 Z" id="Fill-10" fill="#231F20" mask="url(#mask-3)"></path>
                <polygon id="Fill-11" fill="#231F20" mask="url(#mask-3)" points="143.000091 58.4642549 125.011249 58.4642549 125.011249 9.05246905e-05 132.584257 9.05246905e-05 132.584257 51.3791891 143.000091 51.3791891"></polygon>
                <polygon id="Fill-12" fill="#231F20" mask="url(#mask-3)" points="2.45903621 71.9430494 2.00503053 72.7966972 2.00503053 75.6657264 0.534801761 75.6657264 0.534801761 66.3262941 2.00503053 66.3262941 2.00503053 70.3691268 2.0313278 70.3691268 3.92926498 66.3262941 5.39949375 66.3262941 3.35435233 70.4889211 5.39949375 75.6657264 3.88906341 75.6657264"></polygon>
                <path d="M10.6921057,65.8322707 L11.975231,65.8322707 L11.975231,64.5516481 L10.6921057,64.5516481 L10.6921057,65.8322707 Z M9.55618475,73.5175152 C9.55618475,74.1846821 9.84998869,74.4381513 10.3178987,74.4381513 C10.7855064,74.4381513 11.0796126,74.1846821 11.0796126,73.5175152 L11.0796126,68.4743846 C11.0796126,67.8072177 10.7855064,67.5537485 10.3178987,67.5537485 C9.84998869,67.5537485 9.55618475,67.8072177 9.55618475,68.4743846 L9.55618475,73.5175152 Z M8.66056636,65.8322707 L9.94369159,65.8322707 L9.94369159,64.5516481 L8.66056636,64.5516481 L8.66056636,65.8322707 Z M8.08595598,68.5679268 C8.08595598,67.0733642 8.8745717,66.2194146 10.3178987,66.2194146 C11.7615279,66.2194146 12.5498414,67.0733642 12.5498414,68.5679268 L12.5498414,73.423973 C12.5498414,74.9188374 11.7615279,75.7724852 10.3178987,75.7724852 C8.8745717,75.7724852 8.08595598,74.9188374 8.08595598,73.423973 L8.08595598,68.5679268 Z" id="Fill-13" fill="#231F20" mask="url(#mask-3)"></path>
                <path d="M17.201193,67.6605375 L17.201193,70.8225649 L17.8961058,70.8225649 C18.3637135,70.8225649 18.6179204,70.6089267 18.6179204,69.9420615 L18.6179204,68.541041 C18.6179204,67.873874 18.3637135,67.6605375 17.8961058,67.6605375 L17.201193,67.6605375 Z M20.0878469,68.6342814 L20.0878469,69.848821 C20.0878469,71.3427802 19.3663346,72.1565971 17.8961058,72.1565971 L17.201193,72.1565971 L17.201193,75.6656359 L15.7309642,75.6656359 L15.7309642,66.3262036 L17.8961058,66.3262036 C19.3663346,66.3262036 20.0878469,67.1400205 20.0878469,68.6342814 L20.0878469,68.6342814 Z" id="Fill-14" fill="#231F20" mask="url(#mask-3)"></path>
                <polygon id="Fill-15" fill="#231F20" mask="url(#mask-3)" points="24.4722965 70.2622171 26.4902338 70.2622171 26.4902338 71.5962493 24.4722965 71.5962493 24.4722965 74.3313019 27.0113428 74.3313019 27.0113428 75.6656359 23.0020677 75.6656359 23.0020677 66.3262036 27.0113428 66.3262036 27.0113428 67.6605375 24.4722965 67.6605375"></polygon>
                <path d="M31.6228254,67.6605375 L31.6228254,70.5289632 L32.1974358,70.5289632 C32.7454466,70.5289632 33.0794522,70.2884693 33.0794522,69.5416406 L33.0794522,68.6213062 C33.0794522,67.9541393 32.852147,67.6605375 32.331038,67.6605375 L31.6228254,67.6605375 Z M33.2266564,75.6656359 C33.1465555,75.4254437 33.0927519,75.278492 33.0927519,74.5183863 L33.0927519,73.0506793 C33.0927519,72.183151 32.798948,71.8632971 32.1306347,71.8632971 L31.6228254,71.8632971 L31.6228254,75.6656359 L30.1525966,75.6656359 L30.1525966,66.3262036 L32.3712396,66.3262036 C33.8949697,66.3262036 34.5496809,67.0335031 34.5496809,68.4743545 L34.5496809,69.208208 C34.5496809,70.1689767 34.242275,70.7824323 33.5872614,71.0890093 L33.5872614,71.1158649 C34.3226781,71.4227436 34.563283,72.1167663 34.563283,73.0905102 L34.563283,74.5316633 C34.563283,74.9848902 34.5762805,75.3186246 34.7234847,75.6656359 L33.2266564,75.6656359 Z" id="Fill-16" fill="#231F20" mask="url(#mask-3)"></path>
                <polygon id="Fill-17" fill="#231F20" mask="url(#mask-3)" points="37.7573127 75.6657264 37.7573127 74.251429 39.1740401 74.251429 39.1740401 75.5190764 38.5320241 77.0000603 37.9308142 77.0000603 38.3186233 75.6657264"></polygon>
                <path d="M49.5723117,71.4630271 L49.5723117,74.3314528 L50.4141265,74.3314528 C50.9089382,74.3314528 51.1761426,74.1045376 51.1761426,73.4111185 L51.1761426,72.5969998 C51.1761426,71.7297732 50.8953362,71.4630271 50.2270229,71.4630271 L49.5723117,71.4630271 Z M49.5723117,67.6603866 L49.5723117,70.1286932 L50.1469221,70.1286932 C50.6949329,70.1286932 51.0289384,69.888501 51.0289384,69.1416723 L51.0289384,68.6211553 C51.0289384,67.9539884 50.8016333,67.6603866 50.2808265,67.6603866 L49.5723117,67.6603866 Z M52.4991672,68.4745053 L52.4991672,68.807938 C52.4991672,69.7684049 52.205061,70.3691871 51.5503497,70.6757641 L51.5503497,70.7026197 C52.3389654,71.0091967 52.6460691,71.7035211 52.6460691,72.6905419 L52.6460691,73.4509493 C52.6460691,74.8918007 51.8843552,75.6657868 50.4141265,75.6657868 L48.1023852,75.6657868 L48.1023852,66.3263544 L50.3207258,66.3263544 C51.8444559,66.3263544 52.4991672,67.0333523 52.4991672,68.4745053 L52.4991672,68.4745053 Z" id="Fill-18" fill="#231F20" mask="url(#mask-3)"></path>
                <polygon id="Fill-19" fill="#231F20" mask="url(#mask-3)" points="56.9368158 72.5701441 55.0790801 66.3263544 56.61611 66.3263544 57.7251292 70.5822219 57.752031 70.5822219 58.8610502 66.3263544 60.2647801 66.3263544 58.4070445 72.5701441 58.4070445 75.6657868 56.9368158 75.6657868"></polygon>
                <polygon id="Fill-20" fill="#231F20" mask="url(#mask-3)" points="62.6577709 66.3262337 67.2017572 66.3262337 67.2017572 67.6605677 65.664425 67.6605677 65.664425 75.6656661 64.1944985 75.6656661 64.1944985 67.6605677 62.6577709 67.6605677"></polygon>
                <polygon id="Fill-21" fill="#231F20" mask="url(#mask-3)" points="71.5454308 70.2622171 73.5633681 70.2622171 73.5633681 71.5962493 71.5454308 71.5962493 71.5454308 74.3313019 74.0844772 74.3313019 74.0844772 75.6656359 70.0755043 75.6656359 70.0755043 66.3262036 74.0844772 66.3262036 74.0844772 67.6605375 71.5454308 67.6605375"></polygon>
                <path d="M78.6959598,67.6605375 L78.6959598,70.5289632 L79.2705701,70.5289632 C79.818581,70.5289632 80.1525865,70.2884693 80.1525865,69.5416406 L80.1525865,68.6213062 C80.1525865,67.9541393 79.9255837,67.6605375 79.4044746,67.6605375 L78.6959598,67.6605375 Z M80.2997907,75.6656359 C80.2196899,75.4254437 80.1661885,75.278492 80.1661885,74.5183863 L80.1661885,73.0506793 C80.1661885,72.183151 79.8720823,71.8632971 79.203769,71.8632971 L78.6959598,71.8632971 L78.6959598,75.6656359 L77.2260333,75.6656359 L77.2260333,66.3262036 L79.4443739,66.3262036 C80.968104,66.3262036 81.6228153,67.0335031 81.6228153,68.4743545 L81.6228153,69.208208 C81.6228153,70.1689767 81.3157116,70.7824323 80.6603958,71.0890093 L80.6603958,71.1158649 C81.3958124,71.4227436 81.6364173,72.1167663 81.6364173,73.0905102 L81.6364173,74.5316633 C81.6364173,74.9848902 81.6497171,75.3186246 81.7969213,75.6656359 L80.2997907,75.6656359 Z" id="Fill-22" fill="#231F20" mask="url(#mask-3)"></path>
                <path d="M92.7023674,74.4380909 C93.1436779,74.4380909 93.4377841,74.2114774 93.4643836,73.6242739 L93.4643836,71.4631478 L92.903073,71.4631478 C92.2347597,71.4631478 91.9409558,71.7830017 91.9409558,72.65053 L91.9409558,73.5174548 C91.9409558,74.1846218 92.2347597,74.4380909 92.7023674,74.4380909 M91.4866478,70.7425713 L91.4866478,70.7157156 C90.791735,70.4221139 90.4704247,69.8080547 90.4704247,68.8080587 L90.4704247,68.6342513 C90.4704247,67.1399904 91.1922393,66.3261734 92.6624681,66.3261734 L94.3460977,66.3261734 L94.3460977,67.6605073 L92.6893699,67.6605073 C92.2217622,67.6605073 91.9409558,67.9006995 91.9409558,68.5678665 L91.9409558,69.1414913 C91.9409558,69.8886217 92.2752635,70.1288139 92.8229721,70.1288139 L93.4643836,70.1288139 L93.4643836,69.0883834 L94.9346124,69.0883834 L94.9346124,70.1288139 L95.3224215,70.1288139 L95.3224215,71.4631478 L94.9346124,71.4631478 L94.9346124,74.5319348 C94.9346124,74.98486 94.9485167,75.3185944 95.0954186,75.6656057 L93.5979858,75.6656057 C93.5311847,75.4788231 93.4912854,75.3457518 93.4643836,74.9317522 L93.4377841,74.9317522 C93.1838794,75.4788231 92.756171,75.7724248 92.1011575,75.7724248 C91.0187378,75.7724248 90.4704247,75.0120174 90.4704247,73.6378526 L90.4704247,72.6906626 C90.4704247,71.7431709 90.7645309,71.0624252 91.4866478,70.7425713" id="Fill-23" fill="#231F20" mask="url(#mask-3)"></path>
                <path d="M105.827998,66.2195655 C107.257421,66.2195655 107.992837,67.0732133 107.992837,68.567776 L107.992837,68.861076 L106.602407,68.861076 L106.602407,68.4745355 C106.602407,67.8073686 106.335203,67.5538994 105.867897,67.5538994 C105.399685,67.5538994 105.132481,67.8073686 105.132481,68.4745355 C105.132481,69.1546777 105.426889,69.6619177 106.389006,70.5022886 C107.61863,71.5828516 108.005835,72.3571395 108.005835,73.4241239 C108.005835,74.9186865 107.257421,75.7723343 105.814094,75.7723343 C104.370464,75.7723343 103.62205,74.9186865 103.62205,73.4241239 L103.62205,72.8504991 L105.012783,72.8504991 L105.012783,73.517666 C105.012783,74.1845313 105.306587,74.4247234 105.773892,74.4247234 C106.242104,74.4247234 106.536211,74.1845313 106.536211,73.517666 C106.536211,72.8375239 106.242104,72.3299821 105.279987,71.4896112 C104.050061,70.4090482 103.662252,69.6347603 103.662252,68.567776 C103.662252,67.0732133 104.397366,66.2195655 105.827998,66.2195655" id="Fill-24" fill="#231F20" mask="url(#mask-3)"></path>
                <path d="M113.633208,65.8322707 L114.916635,65.8322707 L114.916635,64.5516481 L113.633208,64.5516481 L113.633208,65.8322707 Z M112.483685,72.7036982 L113.900412,72.7036982 L113.206104,67.9804216 L113.1789,67.9804216 L112.483685,72.7036982 Z M111.601366,65.8322707 L112.884794,65.8322707 L112.884794,64.5516481 L111.601366,64.5516481 L111.601366,65.8322707 Z M115.838249,75.6656661 L114.35472,75.6656661 L114.10142,73.9713456 L112.296581,73.9713456 L112.042375,75.6656661 L110.69275,75.6656661 L112.189579,66.3262337 L114.341421,66.3262337 L115.838249,75.6656661 Z" id="Fill-25" fill="#231F20" mask="url(#mask-3)"></path>
                <polygon id="Fill-26" fill="#231F20" mask="url(#mask-3)" points="118.751412 66.3262337 120.221943 66.3262337 120.221943 74.3313321 122.640989 74.3313321 122.640989 75.6656661 118.751412 75.6656661"></polygon>
                <path d="M125.181063,74.3314226 C125.340963,74.3450014 125.528066,74.3450014 125.688268,74.3450014 C126.15648,74.3450014 126.530687,74.1711939 126.530687,73.4509192 L126.530687,66.3263243 L128.000311,66.3263243 L128.000311,73.3444018 C128.000311,75.2122279 126.997993,75.6923105 125.889276,75.6923105 C125.621467,75.6923105 125.421366,75.6923105 125.181063,75.6657566 L125.181063,74.3314226 Z" id="Fill-27" fill="#231F20" mask="url(#mask-3)"></path>
                <polygon id="Fill-28" fill="#231F20" mask="url(#mask-3)" points="132.705285 70.2622171 134.723223 70.2622171 134.723223 71.5962493 132.705285 71.5962493 132.705285 74.3313019 135.244332 74.3313019 135.244332 75.6656359 131.234754 75.6656359 131.234754 66.3262036 135.244332 66.3262036 135.244332 67.6605375 132.705285 67.6605375"></polygon>
                <path d="M139.856086,67.6605375 L139.856086,70.5289632 L140.430394,70.5289632 C140.978707,70.5289632 141.312713,70.2884693 141.312713,69.5416406 L141.312713,68.6213062 C141.312713,67.9541393 141.08571,67.6605375 140.564601,67.6605375 L139.856086,67.6605375 Z M141.459917,75.6656359 C141.379816,75.4254437 141.32571,75.278492 141.32571,74.5183863 L141.32571,73.0506793 C141.32571,72.183151 141.032813,71.8632971 140.3645,71.8632971 L139.856086,71.8632971 L139.856086,75.6656359 L138.385857,75.6656359 L138.385857,66.3262036 L140.6045,66.3262036 C142.128231,66.3262036 142.783546,67.0335031 142.783546,68.4743545 L142.783546,69.208208 C142.783546,70.1689767 142.475234,70.7824323 141.821127,71.0890093 L141.821127,71.1158649 C142.555637,71.4227436 142.796544,72.1167663 142.796544,73.0905102 L142.796544,74.5316633 C142.796544,74.9848902 142.809541,75.3186246 142.956746,75.6656359 L141.459917,75.6656359 Z" id="Fill-29" fill="#231F20" mask="url(#mask-3)"></path>
            </g>
        </g>
    </g>
</svg>